<?xml version="1.0" encoding="utf-8"?>
<!-- Generator: Adobe Illustrator 22.0.0, SVG Export Plug-In . SVG Version: 6.00 Build 0)  -->
<svg version="1.1" id="Layer_1" xmlns="http://www.w3.org/2000/svg" xmlns:xlink="http://www.w3.org/1999/xlink" x="0px" y="0px"
	 viewBox="0 0 40 32" style="enable-background:new 0 0 40 32;" xml:space="preserve">
<style type="text/css">
	.st0{fill:url(#SVGID_1_);}
	.st1{fill:#FFFFFF;}
	.st2{fill:url(#SVGID_2_);}
	.st3{fill:#231F20;}
	.st4{font-family:'Porter-BoldDEMO';}
	.st5{font-size:2.09px;}
</style>
<g>
	
		<image style="overflow:visible;opacity:0.25;enable-background:new    ;" width="109" height="126" xlink:href="57835B5CFAC859EB.png"  transform="matrix(0.2267 0 0 0.2267 7.7858 1.719)">
	</image>
	
		<linearGradient id="SVGID_1_" gradientUnits="userSpaceOnUse" x1="9.2937" y1="173.4312" x2="28.7188" y2="192.8562" gradientTransform="matrix(1 0 0 1 0 -166)">
		<stop  offset="0" style="stop-color:#5CC6D2"/>
		<stop  offset="1" style="stop-color:#17479D"/>
	</linearGradient>
	<path class="st0" d="M29.2,10.2v15.5c0,0.9-0.7,1.6-1.6,1.6l0,0H12.7c-0.9,0-1.6-0.7-1.6-1.6l0,0v-2.6h15.5c0.4,0,0.7-0.3,0.7-0.7
		l0,0v-3c-0.1-0.3-0.3-0.6-0.7-0.6H11.1V6.3c0-0.9,0.7-1.6,1.6-1.6l0,0h9.8L29.2,10.2z"/>
	
		<image style="overflow:visible;opacity:0.25;enable-background:new    ;" width="98" height="51" xlink:href="57835B5CFAC859E9.png"  transform="matrix(0.2233 0 0 0.2233 8.2389 15.2861)">
	</image>
	<path class="st1" d="M27.3,19.4v3c0,0.4-0.3,0.6-0.6,0.7H11.1v-4.3h15.6C27,18.8,27.3,19.1,27.3,19.4z"/>
	
		<linearGradient id="SVGID_2_" gradientUnits="userSpaceOnUse" x1="25.85" y1="176.2238" x2="25.85" y2="170.7" gradientTransform="matrix(1 0 0 1 0 -166)">
		<stop  offset="0" style="stop-color:#B1DED5"/>
		<stop  offset="1" style="stop-color:#1760B2"/>
	</linearGradient>
	<path class="st2" d="M29.2,10.2h-5.1c-0.9,0-1.6-0.7-1.6-1.6l0,0V4.7L29.2,10.2z"/>
	<text transform="matrix(1 0 0 1 11.9 21.8)" class="st3 st4 st5">ONE </text>
	<text transform="matrix(1 0 0 1 17.1 21.8)" class="st3 st4 st5">P</text>
	<text transform="matrix(1 0 0 1 18.3 21.8)" class="st3 st4 st5">A</text>
	<text transform="matrix(1 0 0 1 19.7 21.8)" class="st3 st4 st5">GE</text>
</g>
</svg>
