<?xml version="1.0" encoding="utf-8"?>
<!-- Generator: Adobe Illustrator 22.0.0, SVG Export Plug-In . SVG Version: 6.00 Build 0)  -->
<svg version="1.1" id="Layer_1" xmlns="http://www.w3.org/2000/svg" xmlns:xlink="http://www.w3.org/1999/xlink" x="0px" y="0px"
	 viewBox="0 0 350 97" style="enable-background:new 0 0 350 97;" xml:space="preserve">
<style type="text/css">
	.st0{fill:url(#SVGID_1_);}
	.st1{fill:#231F20;}
</style>
<title>site_logo_2</title>
<linearGradient id="SVGID_1_" gradientUnits="userSpaceOnUse" x1="42.9269" y1="81.0298" x2="95.4736" y2="28.4731" gradientTransform="matrix(1 0 0 -1 0 98)">
	<stop  offset="0" style="stop-color:#5CC7D3"/>
	<stop  offset="0.99" style="stop-color:#17479E"/>
</linearGradient>
<path class="st0" d="M107.7,46.5L107.7,46.5l-2.7-0.7l0,0c-5.5-1.2-18-3.3-25.3,0.4L78.3,47l0,0c-1.5,1.1-2.7,2.6-3.4,4.3H75
	c0.4-0.5,2.9-3.4,5.3-3.6c0,0-1.7,7.6,12.6,24.4l-4.1-4.4l0,0c-4.6-5-11.5-11.7-14.2-10.6c-4.7,1.9-8.6,22-9.2,25.1v0.4l0,0
	l-0.7-16.8c-0.3-2-0.3-3.9,0-5.9l0,0c0.4-2.6,1.3-5.4,3.5-7.2h-0.3c0,0.1,0,0.1-0.1,0.1h-0.1l-0.5,0.4c-0.1,0-0.1,0.1-0.2,0.2
	l-0.4,0.3L66.3,54l-0.6,0.6l-0.2,0.2l-0.4,0.4l0,0l-0.3,0.3h-0.1c-0.1,0.1-0.2,0.2-0.2,0.3l-0.3,0.4c-0.1,0-0.1,0-0.1,0.1l-0.7,0.8
	c-0.1,0.1-0.1,0.3-0.2,0.4S63,57.7,63,57.8h-0.1l-0.2,0.3c0,0.1-0.1,0.2-0.2,0.4s-0.2,0.2-0.2,0.3h-0.1V59c-0.7,1.1-1.5,2.3-2.3,3.7
	l-0.3,0.5l0,0l-0.3,0.4v0.2c-0.2,0.3-0.4,0.6-0.5,0.9L57.6,67c-0.3,0.5-0.5,1-0.7,1.5l-0.4,0.7L55.3,72c-0.1,0.2-0.2,0.3-0.2,0.5
	L54,75.2c-0.2,0.3-0.3,0.6-0.4,0.9l-0.2,0.5c-0.1,0.2-0.1,0.4-0.2,0.6c-0.1,0.2-0.2,0.4-0.2,0.6c-0.1,0.2-0.2,0.3-0.2,0.5l-0.2,0.4
	l-0.3,0.9c0.4-1.2,6.8-22.7,5.5-30.7h-0.1v0.2l0,0c0,0.1-0.1,0.1-0.1,0.2l0,0v0.3c-0.1,0.1-0.1,0.3-0.1,0.4c-0.2,1.4-0.6,2.7-1.2,4
	c0,0-1.5-7.9-6.1-11.4l-0.7-0.5c-4.8-3.3-16.5-7.5-21.2-8.7h-0.4c4,0.8,22.6,4.6,28.6,0.2s1.8-31.3,1.7-31.9l0,0
	c0.1,0.3,5.2,14.7,11.2,24.2c-0.7,0.8-1.6,1.3-2.6,1.4c0,0,4.7,0.4,7.1-5.1l6.2-19.3c-0.2,0.9-5.6,26.3-5.9,33.5
	c0,0,0.8-3.4,2.3-4.9c0.1,1.1,0.5,2.2,1.3,3c2.7,2.2,9.5-0.1,15.6-2.9s10.7-5.8,11.3-6.1c-1,0.7-16.5,11.5-26.3,14.5
	C78.6,40,86.1,38.8,107.7,46.5z"/>
<path class="st1" d="M113.5,33.9h2.3l14.3,15.8V34.1h5.2v26.6h-2.4L118.7,45v15.5h-5.2V33.9z"/>
<path class="st1" d="M148.1,39.4v5.3h8.6v5.2h-8.6v5.3h11.8v5.3h-17V34.1h17v5.3L148.1,39.4z"/>
<path class="st1" d="M187.8,60.5h-6.4l-7.2-10.1h-3.1v10.1h-5.2V34.1h10.6c1.1,0,2.2,0.2,3.2,0.7c0.9,0.4,1.8,1,2.5,1.7
	c0.8,0.7,1.4,1.6,1.8,2.6c1.1,2.5,0.9,5.3-0.6,7.6c-0.8,1.3-2,2.3-3.4,2.9L187.8,60.5z M175.6,45.2c1,0.1,2.1-0.2,2.9-0.9
	c0.6-0.5,0.9-1.2,0.9-2c0-0.8-0.3-1.6-0.9-2.1c-0.8-0.6-1.9-0.9-2.9-0.8h-4.5v5.8H175.6z"/>
<path class="st1" d="M201.3,60.7l-11.9-26.6h5.8l7.2,16.1l3.5-8l3.6-8.1h5.7l-11.7,26.6H201.3z"/>
<path class="st1" d="M224.8,39.4v5.3h8.5v5.2h-8.5v5.3h11.7v5.3h-16.9V34.1h16.9v5.3L224.8,39.4z"/>
<path class="st1" d="M249.3,60.7c-1.1,0-2.3-0.1-3.4-0.4c-1.1-0.3-2.1-0.8-3-1.4l0,0c-0.6-0.4-1.2-0.9-1.8-1.4l-1.1-1.1l3.9-3.6
	l0.9,0.8l1.3,0.9l1.6,0.7c0.5,0.2,1.1,0.3,1.6,0.3h1.2c0.4-0.1,0.8-0.3,1.2-0.5c0.4-0.2,0.7-0.5,0.9-0.9c0.2-0.4,0.3-0.8,0.3-1.3
	c0-0.2,0-0.4-0.2-0.6c-0.1-0.3-0.4-0.5-0.7-0.8c-0.4-0.4-0.9-0.7-1.4-0.9l-2.3-1l-2.9-1.3c-0.9-0.5-1.7-1-2.4-1.6
	c-0.6-0.7-1.1-1.4-1.5-2.2c-0.4-0.9-0.6-1.8-0.6-2.8c0-1,0.3-2.1,0.7-3c0.4-0.9,1-1.7,1.7-2.4c0.7-0.7,1.6-1.3,2.6-1.7
	c1.1-0.3,2.3-0.5,3.5-0.5c0.7,0,1.4,0,2.1,0.2l2.3,0.7l2,1c0.6,0.3,1.1,0.6,1.6,1.1l-3.2,4l-1.5-0.9l-1.4-0.6l-1.7-0.3
	c-0.9-0.1-1.7,0.2-2.5,0.6c-0.6,0.4-0.9,1.1-0.9,1.8c0,0.4,0.1,0.7,0.3,1l0.9,0.8l1.3,0.6l1.5,0.6c1.3,0.5,2.6,1.1,3.8,1.7
	c0.9,0.5,1.7,1.2,2.5,1.9c0.6,0.6,1,1.4,1.3,2.2c0.3,0.8,0.4,1.6,0.4,2.5c0,1.1-0.2,2.1-0.7,3.1c-0.4,0.9-1,1.8-1.8,2.5
	c-0.9,0.7-1.8,1.3-2.9,1.7C251.7,60.6,250.5,60.7,249.3,60.7z"/>
<path class="st1" d="M113.4,70.8h0.6l4.2,4.6v-4.6h1.6v7.9h-0.7l-4.2-4.7v4.6h-1.5V70.8z"/>
<path class="st1" d="M124.8,72.4v1.5h2.5v1.6h-2.5v1.6h3.5v1.5h-5v-7.8h5v1.6H124.8z"/>
<path class="st1" d="M134.2,78.7l-1.2-0.2l-1-0.7c-0.3-0.2-0.5-0.5-0.6-0.9c-0.2-0.4-0.2-0.8-0.2-1.2v-4.9h1.5v4.7
	c0,0.2,0,0.5,0.1,0.7l0.3,0.5c0.2,0.1,0.3,0.3,0.5,0.3l0.6,0.2l0.5-0.2c0.4-0.1,0.7-0.4,0.8-0.8c0.1-0.2,0.2-0.5,0.2-0.7v-4.7h1.5
	v4.9c0,0.4-0.1,0.8-0.2,1.2c-0.2,0.3-0.4,0.6-0.6,0.9l-1,0.7L134.2,78.7z"/>
<path class="st1" d="M147,78.6h-1.8l-2.2-2.9h-0.9v2.9h-1.5v-7.8h3.1l0.9,0.2l0.8,0.5c0.2,0.2,0.4,0.5,0.5,0.8
	c0.2,0.3,0.2,0.6,0.2,0.9c0,0.5-0.1,1-0.4,1.4c-0.2,0.3-0.5,0.6-0.9,0.8L147,78.6z M143.4,74.1l0.9-0.2c0.2-0.2,0.3-0.4,0.3-0.7
	c0-0.2-0.1-0.4-0.3-0.6l-0.9-0.2h-1.3v1.7L143.4,74.1z"/>
<path class="st1" d="M152.7,78.7c-0.5,0-1-0.1-1.4-0.3c-0.5-0.2-0.9-0.4-1.3-0.8c-0.4-0.3-0.7-0.7-0.9-1.2c-0.3-0.5-0.4-1.1-0.4-1.7
	c0-0.5,0.1-1,0.3-1.5c0.2-0.5,0.5-0.9,0.9-1.2c0.3-0.4,0.7-0.7,1.2-0.9c0.5-0.2,1.1-0.3,1.6-0.3l1.5,0.3c0.5,0.1,1,0.4,1.3,0.8
	c0.3,0.3,0.6,0.8,0.8,1.2c0.3,0.5,0.4,1,0.4,1.6c0,0.5-0.1,1-0.3,1.5c-0.2,0.5-0.5,0.9-0.8,1.3c-0.4,0.4-0.8,0.7-1.3,0.9
	C153.8,78.6,153.2,78.7,152.7,78.7z M152.7,72.3l-0.9,0.2L151,73c-0.2,0.2-0.4,0.5-0.5,0.8c-0.2,0.3-0.2,0.6-0.2,0.9
	c0,0.3,0,0.7,0.2,1c0.1,0.3,0.3,0.5,0.5,0.7c0.2,0.3,0.5,0.5,0.8,0.6l0.9,0.2l0.9-0.2c0.3-0.1,0.6-0.3,0.8-0.6
	c0.2-0.2,0.4-0.4,0.5-0.7c0.2-0.3,0.2-0.7,0.2-1c0-0.3,0-0.6-0.2-0.9c-0.1-0.3-0.3-0.6-0.5-0.8l-0.8-0.5L152.7,72.3z"/>
<path class="st1" d="M159.7,70.8h0.6l4.2,4.6v-4.6h1.6v7.9h-0.7l-4.2-4.7v4.6h-1.5V70.8z"/>
<path class="st1" d="M171.1,72.4v1.5h2.5v1.6h-2.5v1.6h3.5v1.5h-5v-7.8h5v1.6H171.1z"/>
<path class="st1" d="M182.8,72.4h-2.1v6.2h-1.6v-6.2H177v-1.6h5.8V72.4z"/>
<path class="st1" d="M192.9,78.7l-1.5-0.3c-0.5-0.2-0.9-0.4-1.3-0.8l-0.9-1.2c-0.2-0.5-0.3-1.1-0.3-1.7c0-0.5,0.1-1,0.3-1.5
	c0.2-0.4,0.5-0.8,0.8-1.2c0.4-0.4,0.8-0.7,1.3-0.9c0.5-0.2,1.1-0.3,1.6-0.3l1.5,0.3c0.5,0.1,0.9,0.4,1.2,0.8
	c0.4,0.3,0.7,0.7,0.9,1.2c0.2,0.5,0.3,1.1,0.3,1.6c0,0.5-0.1,1-0.2,1.5c-0.2,0.5-0.5,0.9-0.9,1.3c-0.3,0.4-0.7,0.7-1.2,0.9
	C194,78.6,193.4,78.7,192.9,78.7z M192.9,72.3l-1,0.2c-0.3,0.1-0.5,0.3-0.7,0.5c-0.3,0.2-0.5,0.5-0.6,0.8c-0.1,0.3-0.1,0.6-0.1,0.9
	c0,0.3,0,0.7,0.1,1l0.6,0.7c0.2,0.3,0.4,0.5,0.7,0.6l1,0.2l0.9-0.2c0.3-0.1,0.6-0.3,0.8-0.6c0.2-0.2,0.4-0.4,0.5-0.7
	c0.1-0.3,0.2-0.7,0.2-1c0-0.3-0.1-0.6-0.2-0.9c-0.1-0.3-0.3-0.6-0.5-0.8l-0.8-0.5L192.9,72.3z"/>
<path class="st1" d="M201.4,72.4v1.5h2.5v1.6h-2.5v3.1h-1.6v-7.8h5v1.6H201.4z"/>
<path class="st1" d="M216.6,72.4h-2.1v6.2h-1.6v-6.2h-2.1v-1.6h5.8L216.6,72.4z"/>
<path class="st1" d="M225.6,70.8v7.8h-1.5v-3.1H221v3.1h-1.5v-7.8h1.5v3.1h3.1v-3.1H225.6z"/>
<path class="st1" d="M229.1,78.6v-7.8h1.5v7.8L229.1,78.6z"/>
<path class="st1" d="M233.9,70.8h0.7l4.2,4.6v-4.6h1.6v7.9h-0.7l-4.2-4.7v4.6h-1.6V70.8z"/>
<path class="st1" d="M247.1,74.2h3v3.3c-0.4,0.4-0.8,0.7-1.3,0.9l-1.5,0.3c-0.6,0-1.2-0.1-1.7-0.3l-1.2-0.9
	c-0.3-0.4-0.6-0.8-0.8-1.3c-0.2-0.5-0.3-1-0.3-1.5c0-0.6,0.1-1.1,0.4-1.6c0.2-0.5,0.5-0.9,0.9-1.3c0.3-0.3,0.8-0.6,1.2-0.8l1.5-0.2
	l1.5,0.3c0.5,0.2,1,0.5,1.4,0.9l-1.1,1.1l-0.9-0.6l-0.9-0.2l-1,0.2c-0.3,0.1-0.5,0.3-0.7,0.5c-0.2,0.2-0.4,0.5-0.5,0.8
	c-0.2,0.3-0.2,0.6-0.2,0.9c0,0.3,0,0.7,0.2,1c0.1,0.3,0.3,0.5,0.5,0.7c0.2,0.3,0.4,0.5,0.7,0.6l1,0.2h0.6l0.7-0.3v-1h-1.5
	L247.1,74.2z"/>
<path class="st1" d="M255.4,78.7h-1l-0.9-0.5l0,0c-0.2-0.1-0.4-0.2-0.5-0.4l-0.4-0.3l1.2-1.1c0.1,0.1,0.1,0.2,0.3,0.3l0.3,0.2
	l0.5,0.3h1.2l0.3-0.3c0-0.1,0.1-0.2,0.1-0.4c-0.1-0.1-0.1-0.1-0.1-0.2l-0.2-0.2l-0.4-0.3l-0.7-0.2l-0.9-0.4l-0.7-0.5l-0.4-0.6
	c-0.3-0.6-0.3-1.2,0-1.8l0.5-0.7l0.8-0.5h1.7l0.6,0.2l0.6,0.3l0.5,0.3l-1,1.2l-0.4-0.2l-0.4-0.2h-0.5l-0.8,0.2
	c-0.1,0.1-0.2,0.3-0.2,0.5c0,0.1,0,0.2,0.1,0.3c0,0.1,0.1,0.2,0.2,0.2l0.4,0.2l0.4,0.2l1.2,0.5l0.7,0.6l0.4,0.6
	c0.1,0.2,0.1,0.5,0.1,0.7c0,0.3,0,0.7-0.2,1c-0.1,0.3-0.3,0.5-0.5,0.7c-0.3,0.2-0.6,0.4-0.9,0.5L255.4,78.7z"/>
</svg>
